#VRML V2.0 utf8
# 3D model generated by easyeda2kicad.py (https://github.com/uPesy/easyeda2kicad.py)

Shape{
    appearance Appearance {
        material  Material 	{
            diffuseColor 0.7529411764705882 0.7529411764705882 0.7529411764705882
            specularColor 0.3764705882352941 0.3764705882352941 0.3764705882352941
            ambientIntensity 0.7529
            transparency 0.0
            shininess 0.5
        }
    }
    geometry IndexedFaceSet {
        ccw TRUE
        solid FALSE
        coord DEF co Coordinate {
            point [
                0.8366 -0.8956 0.0, 0.6634 -0.8956 0.0, 0.8366 -0.8956 0.0984, 0.6634 -0.8956 0.0984, 0.8366 -1.1811 0.0, 0.8366 -1.1811 0.0984, 0.8012 -1.1811 0.0, 0.8012 -1.1811 0.0984, 0.8012 -1.2106 0.0, 0.8012 -1.2106 0.0984, 0.6988 -1.2106 0.0, 0.6988 -1.2106 0.0984, 0.6988 -1.1811 0.0, 0.6988 -1.1811 0.0984, 0.6634 -1.1811 0.0, 0.6634 -1.1811 0.0984, 0.3012 -1.1811 0.0, 0.3366 -1.1811 0.0, 0.3012 -1.1811 0.0984, 0.3366 -1.1811 0.0984, 0.3012 -1.2106 0.0, 0.3012 -1.2106 0.0984, 0.1988 -1.2106 0.0, 0.1988 -1.2106 0.0984, 0.1988 -1.1811 0.0, 0.1988 -1.1811 0.0984, 0.1634 -1.1811 0.0, 0.1634 -1.1811 0.0984, 0.1634 -1.0925 0.0, 0.1634 -1.0925 0.0984, -0.1634 -1.0925 0.0, -0.1634 -1.0925 0.0984, -0.1634 -1.1811 0.0, -0.1634 -1.1811 0.0984, -0.1988 -1.1811 0.0, -0.1988 -1.1811 0.0984, -0.1988 -1.2106 0.0, -0.1988 -1.2106 0.0984, -0.3012 -1.2106 0.0, -0.3012 -1.2106 0.0984, -0.3012 -1.1811 0.0, -0.3012 -1.1811 0.0984, -0.3366 -1.1811 0.0, -0.3366 -1.1811 0.0984, -0.3366 -1.0925 0.0, -0.3366 -1.0925 0.0984, -0.6634 -1.0925 0.0, -0.6634 -1.0925 0.0984, -0.6634 -1.1811 0.0, -0.6634 -1.1811 0.0984, -0.6988 -1.1811 0.0, -0.6988 -1.1811 0.0984, -0.6988 -1.2106 0.0, -0.6988 -1.2106 0.0984, -0.8012 -1.2106 0.0, -0.8012 -1.2106 0.0984, -0.8012 -1.1811 0.0, -0.8012 -1.1811 0.0984, -0.8366 -1.1811 0.0, -0.8366 -1.1811 0.0984, -0.8366 -1.0925 0.0, -0.8366 -1.0925 0.0984, -0.8799 -1.0925 0.0, -0.8799 -1.0925 0.0984, -0.8799 -0.8956 0.0, -0.8799 -0.8956 0.0984, 0.3799 -0.8956 0.0, 0.3799 -0.8956 0.0984, 0.3799 -1.0925 0.0, 0.3799 -1.0925 0.0984, 0.3366 -1.0925 0.0, 0.3366 -1.0925 0.0984, -0.8957 -0.24 0.0, -0.8366 -0.2559 0.0, -0.8957 -0.24 0.0984, -0.8366 -0.2559 0.0984, -0.8957 -0.2082 0.0, -0.8957 -0.2082 0.0984, -1.065 -0.2082 0.0, -1.065 -0.2082 0.0984, -1.065 -0.1137 0.0, -1.065 -0.1137 0.0984, -0.8957 -0.1137 0.0, -0.8957 -0.1137 0.0984, -0.8957 -0.0818 0.0, -0.8957 -0.0818 0.0984, -0.8366 -0.0659 0.0, -0.8366 -0.0659 0.0984, -0.8366 1.1811 0.0, -0.8366 1.1811 0.0984, -0.8012 1.1811 0.0, -0.8012 1.1811 0.0984, -0.8012 1.2106 0.0, -0.8012 1.2106 0.0984, -0.6988 1.2106 0.0, -0.6988 1.2106 0.0984, -0.6988 1.1811 0.0, -0.6988 1.1811 0.0984, -0.6634 1.1811 0.0, -0.6634 1.1811 0.0984, -0.6634 0.9646 0.0, -0.6634 0.9646 0.0984, -0.3366 0.9646 0.0, -0.3366 0.9646 0.0984, -0.3366 1.1811 0.0, -0.3366 1.1811 0.0984, -0.3012 1.1811 0.0, -0.3012 1.1811 0.0984, -0.3012 1.2106 0.0, -0.3012 1.2106 0.0984, -0.1988 1.2106 0.0, -0.1988 1.2106 0.0984, -0.1988 1.1811 0.0, -0.1988 1.1811 0.0984, -0.1634 1.1811 0.0, -0.1634 1.1811 0.0984, -0.1634 0.9646 0.0, -0.1634 0.9646 0.0984, 0.1634 0.9646 0.0, 0.1634 0.9646 0.0984, 0.1634 1.1811 0.0, 0.1634 1.1811 0.0984, 0.1988 1.1811 0.0, 0.1988 1.1811 0.0984, 0.1988 1.2106 0.0, 0.1988 1.2106 0.0984, 0.3012 1.2106 0.0, 0.3012 1.2106 0.0984, 0.3012 1.1811 0.0, 0.3012 1.1811 0.0984, 0.3366 1.1811 0.0, 0.3366 1.1811 0.0984, 0.3366 0.9646 0.0, 0.3366 0.9646 0.0984, 0.6634 0.9646 0.0, 0.6634 0.9646 0.0984, 0.6634 1.1811 0.0, 0.6634 1.1811 0.0984, 0.6988 1.1811 0.0, 0.6988 1.1811 0.0984, 0.6988 1.2106 0.0, 0.6988 1.2106 0.0984, 0.8012 1.2106 0.0, 0.8012 1.2106 0.0984, 0.8012 1.1811 0.0, 0.8012 1.1811 0.0984, 0.8366 1.1811 0.0, 0.8366 1.1811 0.0984, 0.8366 -0.0659 0.0, 0.8366 -0.0659 0.0984, 0.8956 -0.0659 0.0, 0.8956 -0.0659 0.0984, 0.8956 -0.1137 0.0, 0.8956 -0.1137 0.0984, 1.0649 -0.1137 0.0, 1.0649 -0.1137 0.0984, 1.0649 -0.2082 0.0, 1.0649 -0.2082 0.0984, 0.8956 -0.2082 0.0, 0.8956 -0.2082 0.0984, 0.8956 -0.2559 0.0, 0.8956 -0.2559 0.0984, 0.8366 -0.2559 0.0, 0.8366 -0.2559 0.0984, 0.8366 -0.4527 0.0, 0.8366 -0.4527 0.0984, -0.8366 -0.4527 0.0, -0.8366 -0.4527 0.0984
            ]
        }
        coordIndex [
            0,1,2,-1,2,1,3,-1,4,0,5,-1,5,0,2,-1,6,4,7,-1,7,4,5,-1,8,6,9,-1,9,6,7,-1,10,8,11,-1,11,8,9,-1,12,10,13,-1,13,10,11,-1,14,12,15,-1,15,12,13,-1,1,14,3,-1,3,14,15,-1,0,4,1,-1,1,4,6,-1,14,1,12,-1,12,1,6,-1,12,6,10,-1,10,6,8,-1,3,15,2,-1,2,15,13,-1,5,2,7,-1,7,2,13,-1,7,13,9,-1,9,13,11,-1,16,17,18,-1,18,17,19,-1,20,16,21,-1,21,16,18,-1,22,20,23,-1,23,20,21,-1,24,22,25,-1,25,22,23,-1,26,24,27,-1,27,24,25,-1,28,26,29,-1,29,26,27,-1,30,28,31,-1,31,28,29,-1,32,30,33,-1,33,30,31,-1,34,32,35,-1,35,32,33,-1,36,34,37,-1,37,34,35,-1,38,36,39,-1,39,36,37,-1,40,38,41,-1,41,38,39,-1,42,40,43,-1,43,40,41,-1,44,42,45,-1,45,42,43,-1,46,44,47,-1,47,44,45,-1,48,46,49,-1,49,46,47,-1,50,48,51,-1,51,48,49,-1,52,50,53,-1,53,50,51,-1,54,52,55,-1,55,52,53,-1,56,54,57,-1,57,54,55,-1,58,56,59,-1,59,56,57,-1,60,58,61,-1,61,58,59,-1,62,60,63,-1,63,60,61,-1,64,62,65,-1,65,62,63,-1,66,64,67,-1,67,64,65,-1,68,66,69,-1,69,66,67,-1,70,68,71,-1,71,68,69,-1,17,70,19,-1,19,70,71,-1,60,62,64,-1,66,68,70,-1,26,28,24,-1,24,28,16,-1,24,16,22,-1,22,16,20,-1,42,44,40,-1,40,44,34,-1,40,34,38,-1,38,34,36,-1,60,64,50,-1,58,60,56,-1,56,60,50,-1,56,50,54,-1,54,50,52,-1,17,16,70,-1,70,16,28,-1,70,28,66,-1,66,28,30,-1,66,30,64,-1,48,50,46,-1,46,50,64,-1,46,64,44,-1,44,64,30,-1,44,30,34,-1,34,30,32,-1,35,33,31,-1,71,69,67,-1,49,47,51,-1,51,47,57,-1,51,57,53,-1,53,57,55,-1,29,27,25,-1,23,21,25,-1,25,21,18,-1,67,65,61,-1,61,65,63,-1,45,43,41,-1,41,39,37,-1,31,29,67,-1,67,29,25,-1,67,25,71,-1,71,25,18,-1,71,18,19,-1,37,35,41,-1,41,35,31,-1,41,31,45,-1,45,31,67,-1,45,67,47,-1,47,67,61,-1,47,61,57,-1,57,61,59,-1,72,73,74,-1,74,73,75,-1,76,72,77,-1,77,72,74,-1,78,76,79,-1,79,76,77,-1,80,78,81,-1,81,78,79,-1,82,80,83,-1,83,80,81,-1,84,82,85,-1,85,82,83,-1,86,84,87,-1,87,84,85,-1,88,86,89,-1,89,86,87,-1,90,88,91,-1,91,88,89,-1,92,90,93,-1,93,90,91,-1,94,92,95,-1,95,92,93,-1,96,94,97,-1,97,94,95,-1,98,96,99,-1,99,96,97,-1,100,98,101,-1,101,98,99,-1,102,100,103,-1,103,100,101,-1,104,102,105,-1,105,102,103,-1,106,104,107,-1,107,104,105,-1,108,106,109,-1,109,106,107,-1,110,108,111,-1,111,108,109,-1,112,110,113,-1,113,110,111,-1,114,112,115,-1,115,112,113,-1,116,114,117,-1,117,114,115,-1,118,116,119,-1,119,116,117,-1,120,118,121,-1,121,118,119,-1,122,120,123,-1,123,120,121,-1,124,122,125,-1,125,122,123,-1,126,124,127,-1,127,124,125,-1,128,126,129,-1,129,126,127,-1,130,128,131,-1,131,128,129,-1,132,130,133,-1,133,130,131,-1,134,132,135,-1,135,132,133,-1,136,134,137,-1,137,134,135,-1,138,136,139,-1,139,136,137,-1,140,138,141,-1,141,138,139,-1,142,140,143,-1,143,140,141,-1,144,142,145,-1,145,142,143,-1,146,144,147,-1,147,144,145,-1,148,146,149,-1,149,146,147,-1,150,148,151,-1,151,148,149,-1,152,150,153,-1,153,150,151,-1,154,152,155,-1,155,152,153,-1,156,154,157,-1,157,154,155,-1,158,156,159,-1,159,156,157,-1,160,158,161,-1,161,158,159,-1,162,160,163,-1,163,160,161,-1,164,162,165,-1,165,162,163,-1,166,164,167,-1,167,164,165,-1,73,166,75,-1,75,166,167,-1,144,146,148,-1,134,136,138,-1,73,72,76,-1,138,140,142,-1,78,80,76,-1,76,80,82,-1,128,130,132,-1,118,120,122,-1,122,124,126,-1,114,116,112,-1,112,116,106,-1,112,106,110,-1,110,106,108,-1,154,156,152,-1,152,156,158,-1,96,98,100,-1,142,144,138,-1,138,144,148,-1,138,148,134,-1,134,148,132,-1,150,152,148,-1,148,152,158,-1,148,158,132,-1,164,166,162,-1,162,166,132,-1,162,132,160,-1,160,132,158,-1,90,92,94,-1,86,88,90,-1,166,73,132,-1,132,73,76,-1,132,76,86,-1,86,76,82,-1,86,82,84,-1,94,96,90,-1,90,96,100,-1,90,100,86,-1,86,100,102,-1,104,106,102,-1,102,106,116,-1,102,116,86,-1,86,116,118,-1,86,118,132,-1,132,118,122,-1,132,122,128,-1,128,122,126,-1,81,79,83,-1,83,79,77,-1,149,147,145,-1,143,141,145,-1,145,141,139,-1,145,139,149,-1,133,131,129,-1,127,125,129,-1,129,125,123,-1,129,123,133,-1,107,105,103,-1,133,163,161,-1,117,115,113,-1,133,75,163,-1,163,75,167,-1,163,167,165,-1,151,149,153,-1,153,149,159,-1,153,159,155,-1,155,159,157,-1,101,99,97,-1,95,93,97,-1,97,93,91,-1,97,91,101,-1,161,159,133,-1,133,159,149,-1,133,149,135,-1,135,149,139,-1,135,139,137,-1,85,83,87,-1,87,83,77,-1,87,77,133,-1,133,77,74,-1,133,74,75,-1,123,121,133,-1,133,121,119,-1,133,119,87,-1,87,119,117,-1,91,89,101,-1,101,89,87,-1,101,87,103,-1,103,87,117,-1,103,117,107,-1,107,117,113,-1,107,113,109,-1,109,113,111,-1,
        ]
    }
}
Shape{
    appearance Appearance {
        material  Material 	{
            diffuseColor 0.3333333333333333 0.3333333333333333 0.3333333333333333
            specularColor 0.16862745098039217 0.16862745098039217 0.16862745098039217
            ambientIntensity 0.3333
            transparency 0.0
            shininess 0.5
        }
    }
    geometry IndexedFaceSet {
        ccw TRUE
        solid FALSE
        coord DEF co Coordinate {
            point [
                -0.1096 -0.664 0.0, -0.0945 -0.6764 0.0, -0.1177 -0.6795 0.0, -0.0855 -0.6794 0.0, -0.0853 -0.6795 0.0, -0.1096 -0.6142 0.0, -0.1034 -0.6189 0.0, -0.1034 -0.6593 0.0, 0.8956 -0.2082 0.0, 1.0138 -0.2082 0.0, 0.8956 -0.2559 0.0, 1.0138 -0.6795 0.0, 0.8366 -0.2559 0.0, 0.8366 -0.4527 0.0, 0.0065 -0.5997 0.0, -0.1177 -0.4527 0.0, 0.0136 -0.5997 0.0, 0.0136 -0.6785 0.0, -0.0573 -0.6101 0.0, -0.0451 -0.6211 0.0, -0.0748 -0.6058 0.0, -0.0401 -0.636 0.0, -0.0399 -0.6392 0.0, -0.044 -0.6554 0.0, -0.0549 -0.6668 0.0, -0.0703 -0.6721 0.0, -0.0908 -0.6691 0.0, -0.0906 -0.609 0.0, -0.0753 -0.6724 0.0, -0.0832 -0.6066 0.0, -0.078 -0.6059 0.0, -0.0238 -0.6704 0.0, -0.0329 -0.6386 0.0, 0.0065 -0.6704 0.0, -0.0752 -0.5977 0.0, -0.0944 -0.6017 0.0, -0.0697 -0.6795 0.0, -0.0238 -0.6785 0.0, -0.0575 -0.6773 0.0, -0.0498 -0.6731 0.0, -0.0453 -0.6694 0.0, -0.0428 -0.6667 0.0, -0.0353 -0.6536 0.0, -0.0379 -0.6185 0.0, -0.0514 -0.6043 0.0, -0.0717 -0.5978 0.0, -0.1025 -0.6067 0.0, -0.1071 -0.6111 0.0, 1.0138 -1.1811 0.0, 0.8366 -1.1811 0.0, 0.3366 -1.1811 0.0, 0.3366 -1.0925 0.0, 0.3799 -1.0925 0.0, 0.3799 -0.8956 0.0, 0.6634 -0.8956 0.0, 0.6634 -1.1811 0.0, 0.8366 -0.8956 0.0, -0.0753 -0.6805 0.0, -0.1177 -0.8956 0.0, -0.0793 -0.6803 0.0, -0.8366 -1.0925 0.0, -0.8366 -1.1811 0.0, -0.8799 -1.0925 0.0, -1.0138 -1.1811 0.0, -0.8799 -0.8956 0.0, -1.0138 -0.6795 0.0, -1.0138 -0.2082 0.0, -0.8957 -0.2559 0.0, -0.8957 -0.2082 0.0, -0.259 -0.6785 0.0, -0.233 -0.6729 0.0, -0.2172 -0.678 0.0, -0.1257 -0.5997 0.0, -0.1702 -0.5997 0.0, -0.1843 -0.6785 0.0, -0.1843 -0.5997 0.0, -0.1702 -0.6078 0.0, -0.3337 -0.6785 0.0, -0.326 -0.6785 0.0, -0.2087 -0.6785 0.0, -0.2128 -0.6002 0.0, -0.2252 -0.6026 0.0, -0.2974 -0.5997 0.0, -0.2667 -0.6785 0.0, -0.2787 -0.6532 0.0, -0.3144 -0.6532 0.0, -0.1702 -0.6401 0.0, -0.1702 -0.632 0.0, -0.1328 -0.632 0.0, -0.1328 -0.6078 0.0, -0.8366 -0.2559 0.0, -0.8366 -0.4527 0.0, -0.2963 -0.5997 0.0, -0.2394 -0.6121 0.0, -0.2474 -0.6277 0.0, -0.2489 -0.6401 0.0, -0.2445 -0.6599 0.0, -0.1328 -0.6401 0.0, -0.1328 -0.6704 0.0, -0.1702 -0.6704 0.0, -0.1702 -0.6785 0.0, -0.1257 -0.6785 0.0, -0.2002 -0.5997 0.0, -0.8366 1.1811 0.0984, -0.8366 1.1811 0.0, -1.0138 1.1811 0.0984, -1.0138 1.1811 0.0, -0.3366 1.1811 0.0984, -0.3366 1.1811 0.0, -0.6634 1.1811 0.0984, -0.6634 1.1811 0.0, 0.1634 1.1811 0.0984, 0.1634 1.1811 0.0, -0.1634 1.1811 0.0984, -0.1634 1.1811 0.0, 0.6634 1.1811 0.0984, 0.6634 1.1811 0.0, 0.3366 1.1811 0.0984, 0.3366 1.1811 0.0, 0.8366 -1.1811 0.0984, 1.0138 -1.1811 0.0984, 0.3366 -1.1811 0.0984, 0.6634 -1.1811 0.0984, -0.1634 -1.1811 0.0984, -0.1634 -1.1811 0.0, 0.1634 -1.1811 0.0984, 0.1634 -1.1811 0.0, -0.6634 -1.1811 0.0984, -0.6634 -1.1811 0.0, -0.3366 -1.1811 0.0984, -0.3366 -1.1811 0.0, 1.0138 -0.1137 0.0984, 1.0138 -0.1137 0.0, 1.0138 1.1811 0.0984, 1.0138 1.1811 0.0, -1.0138 -1.1811 0.0984, -1.0138 -0.2082 0.0984, -0.8957 -0.1137 0.0, -1.0138 -0.1137 0.0, -0.8957 -0.0659 0.0, -0.8366 -0.0659 0.0, 0.8956 -0.1137 0.0, 0.8956 -0.0659 0.0, 0.8366 -0.0659 0.0, 0.8366 1.1811 0.0, 0.3366 0.9646 0.0, 0.6634 0.9646 0.0, -0.1634 0.9646 0.0, 0.1634 0.9646 0.0, -0.6634 0.9646 0.0, -0.3366 0.9646 0.0, -0.3366 -1.0925 0.0, -0.6634 -1.0925 0.0, 1.0138 -0.2082 0.0984, 0.8366 1.1811 0.0984, -1.0138 -0.1137 0.0984, -0.8366 -1.1811 0.0984, 0.9723 -1.1396 0.3937, -0.6645 -0.9027 0.3937, -0.694 -0.9322 0.3937, -0.7746 -0.7926 0.3937, -0.7343 -0.7818 0.3937, -0.9723 1.1396 0.3937, -0.9723 -1.1396 0.3937, -0.7343 -0.943 0.3937, -0.7746 -0.9322 0.3937, 0.9723 1.1396 0.3937, -0.8041 -0.9027 0.3937, -0.8149 -0.8624 0.3937, -0.8041 -0.8221 0.3937, -0.694 -0.7926 0.3937, -0.6645 -0.8221 0.3937, -0.6537 -0.8624 0.3937, 0.1634 -1.0925 0.0, -0.1634 -1.0925 0.0
            ]
        }
        coordIndex [
            0,1,2,-1,2,1,3,-1,2,3,4,-1,5,6,7,-1,8,9,10,-1,10,9,11,-1,10,11,12,-1,12,11,13,-1,14,15,16,-1,16,15,13,-1,16,13,17,-1,18,19,20,-1,20,19,21,-1,20,21,22,-1,22,23,20,-1,20,23,24,-1,20,24,25,-1,7,6,26,-1,26,6,27,-1,26,27,28,-1,28,27,29,-1,28,29,25,-1,25,29,30,-1,25,30,20,-1,31,32,33,-1,33,32,14,-1,34,35,15,-1,13,11,17,-1,17,11,36,-1,17,36,37,-1,37,36,38,-1,37,38,39,-1,39,40,37,-1,37,40,41,-1,37,41,31,-1,31,41,42,-1,31,42,32,-1,32,43,14,-1,14,43,44,-1,14,44,15,-1,15,44,45,-1,15,45,34,-1,35,46,15,-1,15,46,47,-1,15,47,5,-1,11,48,49,-1,50,51,52,-1,53,54,52,-1,52,54,55,-1,52,55,50,-1,49,56,11,-1,11,56,54,-1,11,54,36,-1,36,54,53,-1,36,53,57,-1,57,53,58,-1,57,58,59,-1,60,61,62,-1,62,61,63,-1,62,63,64,-1,64,63,65,-1,64,65,58,-1,65,66,67,-1,67,66,68,-1,69,70,71,-1,7,0,5,-1,5,0,2,-1,5,2,15,-1,15,2,72,-1,15,72,73,-1,74,75,76,-1,76,75,73,-1,77,78,2,-1,79,74,2,-1,80,81,15,-1,82,77,65,-1,65,77,2,-1,65,2,58,-1,58,2,4,-1,58,4,59,-1,71,79,69,-1,69,79,2,-1,69,2,83,-1,83,2,78,-1,83,78,84,-1,84,78,85,-1,86,74,87,-1,87,74,76,-1,87,76,88,-1,88,76,89,-1,67,90,65,-1,65,90,91,-1,65,91,82,-1,82,91,15,-1,82,15,92,-1,92,15,81,-1,92,81,93,-1,93,94,92,-1,92,94,95,-1,92,95,69,-1,69,95,96,-1,69,96,70,-1,97,98,86,-1,86,98,99,-1,86,99,74,-1,74,99,100,-1,74,100,2,-1,2,100,101,-1,2,101,72,-1,73,75,15,-1,15,75,102,-1,15,102,80,-1,103,104,105,-1,105,104,106,-1,107,108,109,-1,109,108,110,-1,111,112,113,-1,113,112,114,-1,115,116,117,-1,117,116,118,-1,119,49,120,-1,120,49,48,-1,121,50,122,-1,122,50,55,-1,123,124,125,-1,125,124,126,-1,127,128,129,-1,129,128,130,-1,131,132,133,-1,133,132,134,-1,63,135,65,-1,65,135,136,-1,65,136,66,-1,137,138,139,-1,139,138,106,-1,139,106,140,-1,140,106,104,-1,132,141,142,-1,143,144,142,-1,142,144,134,-1,142,134,132,-1,145,118,146,-1,146,118,116,-1,147,114,148,-1,148,114,112,-1,149,110,150,-1,150,110,108,-1,151,130,152,-1,152,130,128,-1,9,153,11,-1,11,153,120,-1,11,120,48,-1,133,134,154,-1,154,134,144,-1,105,106,155,-1,155,106,138,-1,135,63,156,-1,156,63,61,-1,157,158,159,-1,160,161,162,-1,157,159,163,-1,163,159,164,-1,163,164,165,-1,162,161,166,-1,165,167,163,-1,163,167,168,-1,163,168,162,-1,162,168,169,-1,162,169,160,-1,161,170,166,-1,166,170,171,-1,166,171,157,-1,157,171,172,-1,157,172,158,-1,173,126,174,-1,174,126,124,-1,
        ]
    }
}
Shape{
    appearance Appearance {
        material  Material 	{
            diffuseColor 0.7529411764705882 0.7529411764705882 0.7529411764705882
            specularColor 0.3764705882352941 0.3764705882352941 0.3764705882352941
            ambientIntensity 0.7529
            transparency 0.0
            shininess 0.5
        }
    }
    geometry IndexedFaceSet {
        ccw TRUE
        solid FALSE
        coord DEF co Coordinate {
            point [
                -0.6537 -0.8624 0.3858, -0.6537 -0.8624 0.3937, -0.6645 -0.8221 0.3858, -0.6645 -0.8221 0.3937, -0.694 -0.7926 0.3858, -0.694 -0.7926 0.3937, -0.7343 -0.7818 0.3858, -0.7343 -0.7818 0.3937, -0.7746 -0.7926 0.3858, -0.7746 -0.7926 0.3937, -0.8041 -0.8221 0.3858, -0.8041 -0.8221 0.3937, -0.8149 -0.8624 0.3858, -0.8149 -0.8624 0.3937, -0.8041 -0.9027 0.3858, -0.8041 -0.9027 0.3937, -0.7746 -0.9322 0.3858, -0.7746 -0.9322 0.3937, -0.7343 -0.943 0.3858, -0.7343 -0.943 0.3937, -0.694 -0.9322 0.3858, -0.694 -0.9322 0.3937, -0.6645 -0.9027 0.3858, -0.6645 -0.9027 0.3937
            ]
        }
        coordIndex [
            0,1,2,-1,2,1,3,-1,2,3,4,-1,4,3,5,-1,4,5,6,-1,6,5,7,-1,6,7,8,-1,8,7,9,-1,8,9,10,-1,10,9,11,-1,10,11,12,-1,12,11,13,-1,12,13,14,-1,14,13,15,-1,14,15,16,-1,16,15,17,-1,16,17,18,-1,18,17,19,-1,18,19,20,-1,20,19,21,-1,20,21,22,-1,22,21,23,-1,22,23,0,-1,0,23,1,-1,
        ]
    }
}
Shape{
    appearance Appearance {
        material  Material 	{
            diffuseColor 0.3333333333333333 0.3333333333333333 0.3333333333333333
            specularColor 0.16862745098039217 0.16862745098039217 0.16862745098039217
            ambientIntensity 0.3333
            transparency 0.0
            shininess 0.5
        }
    }
    geometry IndexedFaceSet {
        ccw TRUE
        solid FALSE
        coord DEF co Coordinate {
            point [
                -0.694 -0.9322 0.3858, -0.6645 -0.9027 0.3858, -0.7343 -0.8624 0.3858, -0.6537 -0.8624 0.3858, -0.6645 -0.8221 0.3858, -0.8041 -0.9027 0.3858, -0.7746 -0.9322 0.3858, -0.7343 -0.943 0.3858, -0.7746 -0.7926 0.3858, -0.8041 -0.8221 0.3858, -0.8149 -0.8624 0.3858, -0.694 -0.7926 0.3858, -0.7343 -0.7818 0.3858
            ]
        }
        coordIndex [
            0,1,2,-1,2,1,3,-1,2,3,4,-1,5,6,2,-1,2,6,7,-1,2,7,0,-1,8,9,2,-1,2,9,10,-1,2,10,5,-1,4,11,2,-1,2,11,12,-1,2,12,8,-1,
        ]
    }
}
Shape{
    appearance Appearance {
        material  Material 	{
            diffuseColor 0.7529411764705882 0.7529411764705882 0.7529411764705882
            specularColor 0.3764705882352941 0.3764705882352941 0.3764705882352941
            ambientIntensity 0.7529
            transparency 0.0
            shininess 0.5
        }
    }
    geometry IndexedFaceSet {
        ccw TRUE
        solid FALSE
        coord DEF co Coordinate {
            point [
                0.8366 -1.1811 0.0984, 0.8366 -0.8956 0.0984, 0.8366 -1.1811 0.0, 0.8366 -0.8956 0.0, 0.6634 -0.8956 0.0984, 0.6634 -0.8956 0.0, 0.6634 -1.1811 0.0984, 0.6634 -1.1811 0.0, 0.3366 -1.1811 0.0984, 0.3366 -1.0925 0.0984, 0.3366 -1.1811 0.0, 0.3366 -1.0925 0.0, 0.3799 -1.0925 0.0984, 0.3799 -1.0925 0.0, 0.3799 -0.8956 0.0984, 0.3799 -0.8956 0.0, -0.1177 -0.8956 0.0, -0.8799 -0.8956 0.0984, -0.8799 -0.8956 0.0, -0.8799 -1.0925 0.0984, -0.8799 -1.0925 0.0, -0.8366 -1.0925 0.0984, -0.8366 -1.0925 0.0, -0.8366 -1.1811 0.0984, -0.8366 -1.1811 0.0, -0.6634 -1.1811 0.0984, -0.6634 -1.0925 0.0984, -0.6634 -1.1811 0.0, -0.6634 -1.0925 0.0, -0.3366 -1.0925 0.0984, -0.3366 -1.0925 0.0, -0.3366 -1.1811 0.0984, -0.3366 -1.1811 0.0, -0.1634 -1.1811 0.0984, -0.1634 -1.0925 0.0984, -0.1634 -1.1811 0.0, -0.1634 -1.0925 0.0, 0.1634 -1.0925 0.0984, 0.1634 -1.0925 0.0, 0.1634 -1.1811 0.0984, 0.1634 -1.1811 0.0, -0.8366 1.1811 0.0984, -0.8366 -0.0659 0.0984, -0.8366 1.1811 0.0, -0.8366 -0.0659 0.0, -0.8957 -0.0659 0.0984, -0.8957 -0.0659 0.0, -0.8957 -0.1137 0.0984, -0.8957 -0.1137 0.0, -1.0138 -0.1137 0.0984, -1.0138 -0.1137 0.0, -1.0138 -0.2082 0.0984, -0.8957 -0.2082 0.0984, -1.0138 -0.2082 0.0, -0.8957 -0.2082 0.0, -0.8957 -0.2559 0.0984, -0.8957 -0.2559 0.0, -0.8366 -0.2559 0.0984, -0.8366 -0.2559 0.0, -0.8366 -0.4527 0.0984, -0.8366 -0.4527 0.0, -0.1177 -0.4527 0.0, 0.8366 -0.4527 0.0984, 0.8366 -0.4527 0.0, 0.8366 -0.2559 0.0984, 0.8366 -0.2559 0.0, 0.8956 -0.2559 0.0984, 0.8956 -0.2559 0.0, 0.8956 -0.2082 0.0984, 0.8956 -0.2082 0.0, 1.0138 -0.2082 0.0984, 1.0138 -0.2082 0.0, 1.0138 -0.1137 0.0984, 0.8956 -0.1137 0.0984, 1.0138 -0.1137 0.0, 0.8956 -0.1137 0.0, 0.8956 -0.0659 0.0984, 0.8956 -0.0659 0.0, 0.8366 -0.0659 0.0984, 0.8366 -0.0659 0.0, 0.8366 1.1811 0.0984, 0.8366 1.1811 0.0, 0.6634 1.1811 0.0984, 0.6634 0.9646 0.0984, 0.6634 1.1811 0.0, 0.6634 0.9646 0.0, 0.3366 0.9646 0.0984, 0.3366 0.9646 0.0, 0.3366 1.1811 0.0984, 0.3366 1.1811 0.0, 0.1634 1.1811 0.0984, 0.1634 0.9646 0.0984, 0.1634 1.1811 0.0, 0.1634 0.9646 0.0, -0.1634 0.9646 0.0984, -0.1634 0.9646 0.0, -0.1634 1.1811 0.0984, -0.1634 1.1811 0.0, -0.3366 1.1811 0.0984, -0.3366 0.9646 0.0984, -0.3366 1.1811 0.0, -0.3366 0.9646 0.0, -0.6634 0.9646 0.0984, -0.6634 0.9646 0.0, -0.6634 1.1811 0.0984, -0.6634 1.1811 0.0
            ]
        }
        coordIndex [
            0,1,2,-1,2,1,3,-1,1,4,3,-1,3,4,5,-1,4,6,5,-1,5,6,7,-1,6,4,0,-1,0,4,1,-1,8,9,10,-1,10,9,11,-1,9,12,11,-1,11,12,13,-1,12,14,13,-1,13,14,15,-1,15,14,16,-1,16,14,17,-1,16,17,18,-1,17,19,18,-1,18,19,20,-1,19,21,20,-1,20,21,22,-1,21,23,22,-1,22,23,24,-1,25,26,27,-1,27,26,28,-1,26,29,28,-1,28,29,30,-1,29,31,30,-1,30,31,32,-1,33,34,35,-1,35,34,36,-1,34,37,36,-1,36,37,38,-1,37,39,38,-1,38,39,40,-1,14,12,9,-1,26,25,23,-1,8,39,9,-1,9,39,37,-1,9,37,14,-1,14,37,34,-1,19,17,21,-1,21,17,14,-1,33,31,34,-1,34,31,29,-1,34,29,14,-1,14,29,26,-1,14,26,21,-1,21,26,23,-1,41,42,43,-1,43,42,44,-1,42,45,44,-1,44,45,46,-1,45,47,46,-1,46,47,48,-1,47,49,48,-1,48,49,50,-1,51,52,53,-1,53,52,54,-1,52,55,54,-1,54,55,56,-1,55,57,56,-1,56,57,58,-1,57,59,58,-1,58,59,60,-1,60,59,61,-1,61,59,62,-1,61,62,63,-1,62,64,63,-1,63,64,65,-1,64,66,65,-1,65,66,67,-1,66,68,67,-1,67,68,69,-1,68,70,69,-1,69,70,71,-1,72,73,74,-1,74,73,75,-1,73,76,75,-1,75,76,77,-1,76,78,77,-1,77,78,79,-1,78,80,79,-1,79,80,81,-1,82,83,84,-1,84,83,85,-1,83,86,85,-1,85,86,87,-1,86,88,87,-1,87,88,89,-1,90,91,92,-1,92,91,93,-1,91,94,93,-1,93,94,95,-1,94,96,95,-1,95,96,97,-1,98,99,100,-1,100,99,101,-1,99,102,101,-1,101,102,103,-1,102,104,103,-1,103,104,105,-1,91,90,88,-1,57,55,42,-1,42,55,52,-1,72,70,73,-1,73,70,68,-1,59,57,86,-1,45,42,47,-1,47,42,52,-1,47,52,49,-1,49,52,51,-1,82,80,83,-1,83,80,78,-1,83,78,86,-1,76,73,78,-1,78,73,68,-1,78,68,86,-1,62,59,64,-1,64,59,86,-1,64,86,66,-1,66,86,68,-1,41,104,102,-1,41,102,42,-1,42,102,99,-1,42,99,57,-1,98,96,99,-1,99,96,94,-1,99,94,57,-1,57,94,91,-1,57,91,86,-1,86,91,88,-1,
        ]
    }
}
Shape{
    appearance Appearance {
        material  Material 	{
            diffuseColor 0.3333333333333333 0.3333333333333333 0.3333333333333333
            specularColor 0.16862745098039217 0.16862745098039217 0.16862745098039217
            ambientIntensity 0.3333
            transparency 0.0
            shininess 0.5
        }
    }
    geometry IndexedFaceSet {
        ccw TRUE
        solid FALSE
        coord DEF co Coordinate {
            point [
                1.0138 1.1811 0.0984, 0.9723 1.1396 0.3937, 1.0138 -0.1137 0.0984, 0.9723 -1.1396 0.3937, 1.0138 -0.2082 0.0984, 1.0138 -1.1811 0.0984, -0.9723 1.1396 0.3937, -1.0138 1.1811 0.0984, -1.0138 -0.1137 0.0984, -0.9723 -1.1396 0.3937, -1.0138 -0.2082 0.0984, -1.0138 -1.1811 0.0984, -0.8366 -1.1811 0.0984, -0.6634 -1.1811 0.0984, -0.3366 -1.1811 0.0984, -0.1634 -1.1811 0.0984, 0.1634 -1.1811 0.0984, 0.3366 -1.1811 0.0984, 0.6634 -1.1811 0.0984, 0.8366 -1.1811 0.0984, 0.8366 1.1811 0.0984, 0.6634 1.1811 0.0984, 0.3366 1.1811 0.0984, 0.1634 1.1811 0.0984, -0.1634 1.1811 0.0984, -0.3366 1.1811 0.0984, -0.6634 1.1811 0.0984, -0.8366 1.1811 0.0984
            ]
        }
        coordIndex [
            0,1,2,-1,2,1,3,-1,2,3,4,-1,4,3,5,-1,6,7,8,-1,6,8,9,-1,9,8,10,-1,9,10,11,-1,11,12,9,-1,9,12,13,-1,13,14,9,-1,9,14,15,-1,9,15,3,-1,3,15,16,-1,3,16,17,-1,17,18,3,-1,3,18,19,-1,3,19,5,-1,0,20,1,-1,1,20,21,-1,21,22,1,-1,1,22,23,-1,1,23,6,-1,6,23,24,-1,6,24,25,-1,25,26,6,-1,6,26,27,-1,6,27,7,-1,
        ]
    }
}
Shape{
    appearance Appearance {
        material  Material 	{
            diffuseColor 0.7529411764705882 0.7529411764705882 0.7529411764705882
            specularColor 0.3764705882352941 0.3764705882352941 0.3764705882352941
            ambientIntensity 0.7529
            transparency 0.0
            shininess 0.5
        }
    }
    geometry IndexedFaceSet {
        ccw TRUE
        solid FALSE
        coord DEF co Coordinate {
            point [
                -0.2963 -0.5997 0.0079, -0.2974 -0.5997 0.0079, -0.2963 -0.5997 0.0, -0.2974 -0.5997 0.0, -0.3337 -0.6785 0.0079, -0.3337 -0.6785 0.0, -0.326 -0.6785 0.0079, -0.326 -0.6785 0.0, -0.3144 -0.6532 0.0079, -0.3144 -0.6532 0.0, -0.2787 -0.6532 0.0079, -0.2787 -0.6532 0.0, -0.2667 -0.6785 0.0079, -0.2667 -0.6785 0.0, -0.259 -0.6785 0.0079, -0.259 -0.6785 0.0, -0.3106 -0.6451 0.0079, -0.2825 -0.6451 0.0079, -0.2968 -0.6151 0.0079, -0.3106 -0.6451 0.0, -0.2968 -0.6151 0.0, -0.2825 -0.6451 0.0, -0.2087 -0.6785 0.0079, -0.1843 -0.6785 0.0079, -0.2087 -0.6785 0.0, -0.1843 -0.6785 0.0, -0.1843 -0.5997 0.0079, -0.1843 -0.5997 0.0, -0.2002 -0.5997 0.0079, -0.2002 -0.5997 0.0, -0.2252 -0.6026 0.0079, -0.2252 -0.6026 0.0, -0.2128 -0.6002 0.0, -0.2128 -0.6002 0.0079, -0.2489 -0.6401 0.0079, -0.2489 -0.6401 0.0, -0.2474 -0.6277 0.0, -0.2474 -0.6277 0.0079, -0.2394 -0.6121 0.0, -0.2394 -0.6121 0.0079, -0.2172 -0.678 0.0, -0.2172 -0.678 0.0079, -0.233 -0.6729 0.0, -0.233 -0.6729 0.0079, -0.2445 -0.6599 0.0, -0.2445 -0.6599 0.0079, -0.2406 -0.6499 0.0079, -0.2342 -0.6614 0.0079, -0.2229 -0.6684 0.0079, -0.2117 -0.6701 0.0079, -0.2004 -0.6704 0.0079, -0.1914 -0.6704 0.0079, -0.1914 -0.6078 0.0079, -0.1969 -0.6078 0.0079, -0.2091 -0.6082 0.0079, -0.2211 -0.61 0.0079, -0.2298 -0.6142 0.0079, -0.2384 -0.6243 0.0079, -0.2418 -0.6401 0.0079, -0.1914 -0.6078 0.0, -0.1914 -0.6704 0.0, -0.1969 -0.6078 0.0, -0.2091 -0.6082 0.0, -0.2211 -0.61 0.0, -0.2298 -0.6142 0.0, -0.2384 -0.6243 0.0, -0.2418 -0.6401 0.0, -0.2406 -0.6499 0.0, -0.2342 -0.6614 0.0, -0.2229 -0.6684 0.0, -0.2117 -0.6701 0.0, -0.2004 -0.6704 0.0, -0.1257 -0.6785 0.0079, -0.1257 -0.5997 0.0079, -0.1257 -0.6785 0.0, -0.1257 -0.5997 0.0, -0.1702 -0.5997 0.0079, -0.1702 -0.5997 0.0, -0.1702 -0.6078 0.0079, -0.1702 -0.6078 0.0, -0.1328 -0.6078 0.0079, -0.1328 -0.6078 0.0, -0.1328 -0.632 0.0079, -0.1328 -0.632 0.0, -0.1702 -0.632 0.0079, -0.1702 -0.632 0.0, -0.1702 -0.6401 0.0079, -0.1702 -0.6401 0.0, -0.1328 -0.6401 0.0079, -0.1328 -0.6401 0.0, -0.1328 -0.6704 0.0079, -0.1328 -0.6704 0.0, -0.1702 -0.6704 0.0079, -0.1702 -0.6704 0.0, -0.1702 -0.6785 0.0079, -0.1702 -0.6785 0.0, -0.1096 -0.6142 0.0079, -0.1096 -0.6142 0.0, -0.1071 -0.6111 0.0, -0.1071 -0.6111 0.0079, -0.1025 -0.6067 0.0, -0.1025 -0.6067 0.0079, -0.0944 -0.6017 0.0, -0.0944 -0.6017 0.0079, -0.0752 -0.5977 0.0, -0.0752 -0.5977 0.0079, -0.1034 -0.6189 0.0079, -0.1034 -0.6189 0.0, -0.0748 -0.6058 0.0079, -0.0748 -0.6058 0.0, -0.078 -0.6059 0.0, -0.078 -0.6059 0.0079, -0.0832 -0.6066 0.0, -0.0832 -0.6066 0.0079, -0.0906 -0.609 0.0, -0.0906 -0.609 0.0079, -0.0399 -0.6392 0.0079, -0.0399 -0.6392 0.0, -0.0401 -0.636 0.0, -0.0401 -0.636 0.0079, -0.0451 -0.6211 0.0, -0.0451 -0.6211 0.0079, -0.0573 -0.6101 0.0, -0.0573 -0.6101 0.0079, -0.0753 -0.6724 0.0079, -0.0753 -0.6724 0.0, -0.0703 -0.6721 0.0, -0.0703 -0.6721 0.0079, -0.0549 -0.6668 0.0, -0.0549 -0.6668 0.0079, -0.044 -0.6554 0.0, -0.044 -0.6554 0.0079, -0.1034 -0.6593 0.0079, -0.1034 -0.6593 0.0, -0.0908 -0.6691 0.0, -0.0908 -0.6691 0.0079, -0.1096 -0.664 0.0079, -0.1096 -0.664 0.0, -0.0753 -0.6805 0.0079, -0.0753 -0.6805 0.0, -0.0793 -0.6803 0.0, -0.0793 -0.6803 0.0079, -0.0853 -0.6795 0.0, -0.0855 -0.6794 0.0079, -0.0855 -0.6794 0.0, -0.0945 -0.6764 0.0, -0.0945 -0.6764 0.0079, -0.0428 -0.6667 0.0079, -0.0428 -0.6667 0.0, -0.0453 -0.6694 0.0, -0.0453 -0.6694 0.0079, -0.0498 -0.6731 0.0, -0.0498 -0.6731 0.0079, -0.0575 -0.6773 0.0, -0.0575 -0.6773 0.0079, -0.0697 -0.6795 0.0, -0.0329 -0.6386 0.0079, -0.0329 -0.6386 0.0, -0.0353 -0.6536 0.0, -0.0353 -0.6536 0.0079, -0.0717 -0.5978 0.0, -0.0717 -0.5978 0.0079, -0.0514 -0.6043 0.0, -0.0514 -0.6043 0.0079, -0.0379 -0.6185 0.0, -0.0379 -0.6185 0.0079, 0.0136 -0.6785 0.0079, 0.0136 -0.5997 0.0079, 0.0136 -0.6785 0.0, 0.0136 -0.5997 0.0, 0.0065 -0.5997 0.0079, 0.0065 -0.5997 0.0, 0.0065 -0.6704 0.0079, 0.0065 -0.6704 0.0, -0.0238 -0.6704 0.0079, -0.0238 -0.6704 0.0, -0.0238 -0.6785 0.0079, -0.0238 -0.6785 0.0
            ]
        }
        coordIndex [
            0,1,2,-1,2,1,3,-1,1,4,3,-1,3,4,5,-1,4,6,5,-1,5,6,7,-1,6,8,7,-1,7,8,9,-1,8,10,9,-1,9,10,11,-1,10,12,11,-1,11,12,13,-1,12,14,13,-1,13,14,15,-1,14,0,15,-1,15,0,2,-1,16,4,1,-1,0,17,1,-1,1,17,18,-1,1,18,16,-1,14,12,10,-1,6,4,8,-1,8,4,16,-1,8,16,10,-1,10,16,17,-1,10,17,14,-1,14,17,0,-1,16,18,19,-1,19,18,20,-1,17,16,21,-1,21,16,19,-1,18,17,20,-1,20,17,21,-1,22,23,24,-1,24,23,25,-1,23,26,25,-1,25,26,27,-1,26,28,27,-1,27,28,29,-1,30,31,32,-1,30,32,33,-1,33,32,29,-1,33,29,28,-1,34,35,36,-1,34,36,37,-1,37,36,38,-1,37,38,39,-1,39,38,31,-1,39,31,30,-1,22,24,40,-1,22,40,41,-1,41,40,42,-1,41,42,43,-1,43,42,44,-1,43,44,45,-1,45,44,35,-1,45,35,34,-1,46,47,43,-1,43,47,48,-1,43,48,41,-1,41,48,49,-1,41,49,22,-1,22,49,50,-1,22,50,23,-1,23,50,51,-1,23,51,26,-1,26,51,52,-1,26,52,28,-1,28,52,53,-1,28,53,33,-1,33,53,54,-1,33,54,30,-1,30,54,55,-1,30,55,39,-1,39,55,56,-1,39,56,37,-1,37,56,57,-1,37,57,34,-1,34,57,58,-1,34,58,45,-1,45,58,46,-1,45,46,43,-1,52,51,59,-1,59,51,60,-1,53,52,61,-1,61,52,59,-1,53,61,62,-1,53,62,54,-1,54,62,63,-1,54,63,55,-1,55,63,64,-1,55,64,56,-1,56,64,65,-1,56,65,57,-1,57,65,66,-1,57,66,58,-1,58,66,67,-1,58,67,46,-1,46,67,68,-1,46,68,47,-1,47,68,69,-1,47,69,48,-1,48,69,70,-1,48,70,49,-1,49,70,71,-1,49,71,50,-1,51,50,60,-1,60,50,71,-1,72,73,74,-1,74,73,75,-1,73,76,75,-1,75,76,77,-1,76,78,77,-1,77,78,79,-1,78,80,79,-1,79,80,81,-1,80,82,81,-1,81,82,83,-1,82,84,83,-1,83,84,85,-1,84,86,85,-1,85,86,87,-1,86,88,87,-1,87,88,89,-1,88,90,89,-1,89,90,91,-1,90,92,91,-1,91,92,93,-1,92,94,93,-1,93,94,95,-1,94,72,95,-1,95,72,74,-1,72,94,92,-1,92,90,72,-1,72,90,88,-1,72,88,73,-1,78,76,80,-1,80,76,73,-1,80,73,82,-1,82,73,88,-1,82,88,84,-1,84,88,86,-1,96,97,98,-1,96,98,99,-1,99,98,100,-1,99,100,101,-1,101,100,102,-1,101,102,103,-1,103,102,104,-1,103,104,105,-1,96,106,97,-1,97,106,107,-1,108,109,110,-1,108,110,111,-1,111,110,112,-1,111,112,113,-1,113,112,114,-1,113,114,115,-1,115,114,107,-1,115,107,106,-1,116,117,118,-1,116,118,119,-1,119,118,120,-1,119,120,121,-1,121,120,122,-1,121,122,123,-1,123,122,109,-1,123,109,108,-1,124,125,126,-1,124,126,127,-1,127,126,128,-1,127,128,129,-1,129,128,130,-1,129,130,131,-1,131,130,117,-1,131,117,116,-1,132,133,134,-1,132,134,135,-1,135,134,125,-1,135,125,124,-1,132,136,133,-1,133,136,137,-1,138,139,140,-1,138,140,141,-1,141,140,142,-1,141,142,143,-1,142,144,143,-1,143,144,145,-1,143,145,146,-1,146,145,137,-1,146,137,136,-1,147,148,149,-1,147,149,150,-1,150,149,151,-1,150,151,152,-1,152,151,153,-1,152,153,154,-1,154,153,138,-1,138,153,155,-1,138,155,139,-1,156,157,158,-1,156,158,159,-1,159,158,148,-1,159,148,147,-1,105,104,160,-1,105,160,161,-1,161,160,162,-1,161,162,163,-1,163,162,164,-1,163,164,165,-1,165,164,157,-1,165,157,156,-1,136,132,146,-1,146,132,135,-1,156,159,131,-1,131,159,129,-1,129,159,147,-1,129,147,150,-1,106,96,99,-1,106,99,115,-1,115,99,101,-1,115,101,103,-1,150,152,129,-1,129,152,154,-1,129,154,127,-1,127,154,138,-1,127,138,124,-1,124,138,141,-1,124,141,135,-1,135,141,143,-1,135,143,146,-1,131,116,156,-1,156,116,119,-1,156,119,165,-1,165,119,121,-1,165,121,163,-1,163,121,123,-1,163,123,161,-1,161,123,108,-1,161,108,105,-1,105,108,111,-1,105,111,103,-1,103,111,113,-1,103,113,115,-1,166,167,168,-1,168,167,169,-1,167,170,169,-1,169,170,171,-1,170,172,171,-1,171,172,173,-1,172,174,173,-1,173,174,175,-1,174,176,175,-1,175,176,177,-1,176,166,177,-1,177,166,168,-1,170,167,172,-1,172,167,166,-1,172,166,174,-1,174,166,176,-1,19,20,21,-1,59,60,61,-1,61,60,71,-1,61,71,62,-1,62,71,70,-1,62,70,63,-1,69,68,70,-1,70,68,67,-1,70,67,66,-1,66,65,70,-1,70,65,64,-1,70,64,63,-1,
        ]
    }
}