#VRML V2.0 utf8
# 3D model generated by easyeda2kicad.py (https://github.com/uPesy/easyeda2kicad.py)

Shape{
    appearance Appearance {
        material  Material 	{
            diffuseColor 0.07058823529411765 0.07058823529411765 0.07058823529411765
            specularColor 0.00392156862745098 0.00392156862745098 0.00392156862745098
            ambientIntensity 0.102
            transparency 0.0
            shininess 0.5
        }
    }
    geometry IndexedFaceSet {
        ccw TRUE
        solid FALSE
        coord DEF co Coordinate {
            point [
                -0.5213 0.9055 0.0, -0.5213 1.1614 0.0, -0.3526 1.1614 0.0, -0.3411 0.6518 0.0, -0.3411 0.6389 0.0, -0.3526 0.6381 0.0, -0.2777 0.6389 0.0, -0.2547 0.645 0.0, -0.2547 0.6579 0.0, -0.2777 0.757 0.0, -0.1158 1.1614 0.0, -0.1158 0.9055 0.0, -0.3382 0.757 0.0, -0.3382 0.744 0.0, -0.2547 0.7379 0.0, -0.2413 0.7436 0.0, -0.2525 0.6568 0.0, -0.227 0.7454 0.0, -0.2154 0.7441 0.0, -0.2935 0.6921 0.0, -0.2935 0.6518 0.0, -0.3353 0.6921 0.0, -0.3353 0.7051 0.0, -0.2935 0.7051 0.0, -0.2935 0.744 0.0, -0.0962 0.6389 0.0, -0.2152 0.6381 0.0, -0.1567 0.6389 0.0, -0.2076 0.6389 0.0, -0.1961 0.6429 0.0, 0.3173 1.1614 0.0, 0.5476 1.1614 0.0, 0.3173 0.9055 0.0, 0.5476 0.6381 0.0, -0.2065 0.7409 0.0, -0.1983 0.7355 0.0, -0.1912 0.7276 0.0, -0.1826 0.6966 0.0, -0.1838 0.6839 0.0, -0.187 0.6737 0.0, -0.2133 0.6516 0.0, -0.2243 0.6504 0.0, -0.2047 0.6548 0.0, -0.1975 0.6597 0.0, -0.1919 0.6655 0.0, -0.24 0.6521 0.0, -0.1863 0.7185 0.0, -0.1832 0.7058 0.0, -0.1866 0.6489 0.0, -0.1778 0.6583 0.0, -0.1567 0.6518 0.0, -0.1715 0.6695 0.0, -0.1121 0.6518 0.0, -0.1799 0.7369 0.0, -0.1906 0.7472 0.0, -0.2018 0.7536 0.0, -0.215 0.7574 0.0, -0.1679 0.682 0.0, -0.1668 0.6957 0.0, -0.1121 0.757 0.0, -0.1685 0.7125 0.0, -0.173 0.7259 0.0, -0.2269 0.7584 0.0, -0.241 0.7574 0.0, -0.2547 0.7537 0.0, 0.272 -1.0243 0.0, 0.2802 -1.0181 0.0, 0.5476 -1.1614 0.0, 0.2864 -1.0099 0.0, 0.2904 0.4373 0.0, 0.2864 0.4468 0.0, 0.2802 0.4549 0.0, 0.2904 -1.0004 0.0, 0.2917 -0.9902 0.0, 0.2917 0.4271 0.0, 0.272 0.4612 0.0, 0.2625 0.4651 0.0, 0.2523 0.4664 0.0, 0.0667 -1.0588 0.0, 0.0706 -1.0493 0.0, 0.0769 -1.0411 0.0, 0.085 -1.0349 0.0, 0.0945 -1.031 0.0, 0.0653 -1.069 0.0, 0.1047 -1.0296 0.0, 0.0653 -1.1614 0.0, 0.2523 -1.0296 0.0, 0.2625 -1.0283 0.0, -0.2301 0.6381 0.0, -0.2254 0.6375 0.0, -0.3526 0.4664 0.0, -0.2222 0.6374 0.0, -0.0962 0.757 0.0, -0.3962 0.6389 0.0, -0.3641 0.6389 0.0, -0.3641 0.757 0.0, -1.1847 1.1614 0.0, -0.9543 1.1614 0.0, -1.1847 0.6381 0.0, -0.9543 0.9055 0.0, -0.4678 0.6389 0.0, -0.4533 0.6712 0.0, -0.4465 0.6607 0.0, -0.4368 0.6514 0.0, -0.4245 0.6442 0.0, -0.4108 0.6401 0.0, -0.5571 0.6389 0.0, -0.5744 0.6389 0.0, -0.5283 0.757 0.0, -0.5125 0.757 0.0, -0.4851 0.6389 0.0, -0.4964 0.672 0.0, -0.5452 0.672 0.0, -0.3974 0.757 0.0, -0.4145 0.7551 0.0, -0.4497 0.7323 0.0, -0.4552 0.7221 0.0, -0.4283 0.7503 0.0, -0.4412 0.7417 0.0, -0.4413 0.7416 0.0, -0.4583 0.7105 0.0, -0.4592 0.6994 0.0, -0.4575 0.6836 0.0, -0.9172 -1.0181 0.0, -1.1847 -1.1614 0.0, -0.9235 -1.0099 0.0, -0.9274 -1.0004 0.0, -0.8996 0.4651 0.0, -0.9091 0.4612 0.0, -0.9172 0.4549 0.0, -0.9235 0.4468 0.0, -0.2421 0.6398 0.0, -0.8894 0.4664 0.0, -0.9274 0.4373 0.0, -0.9288 0.4271 0.0, -0.9288 -0.9902 0.0, -0.9091 -1.0243 0.0, -0.8996 -1.0283 0.0, -0.7024 -1.1614 0.0, -0.8894 -1.0296 0.0, -0.7024 -1.069 0.0, -0.7417 -1.0296 0.0, -0.7316 -1.031 0.0, -0.7221 -1.0349 0.0, -0.7139 -1.0411 0.0, -0.7077 -1.0493 0.0, -0.7037 -1.0588 0.0
            ]
        }
        coordIndex [
            0,1,2,-1,3,4,5,-1,5,4,6,-1,7,6,8,-1,8,6,9,-1,10,11,2,-1,2,11,9,-1,9,12,2,-1,2,12,13,-1,2,13,3,-1,9,14,8,-1,8,14,15,-1,8,15,16,-1,16,15,17,-1,16,17,18,-1,19,20,21,-1,21,20,3,-1,21,3,22,-1,22,3,13,-1,22,13,23,-1,23,13,24,-1,25,26,27,-1,27,26,28,-1,27,28,29,-1,30,31,32,-1,32,31,33,-1,18,34,16,-1,16,34,35,-1,16,35,36,-1,37,38,16,-1,16,38,39,-1,40,41,42,-1,42,41,43,-1,39,44,16,-1,16,44,43,-1,16,43,45,-1,45,43,41,-1,36,46,16,-1,16,46,47,-1,16,47,37,-1,29,48,27,-1,27,48,49,-1,27,49,50,-1,50,49,51,-1,50,51,52,-1,53,54,11,-1,11,54,55,-1,11,55,56,-1,51,57,52,-1,52,57,58,-1,52,58,59,-1,59,58,60,-1,59,60,61,-1,56,62,11,-1,11,62,63,-1,11,63,9,-1,9,63,64,-1,9,64,14,-1,65,66,67,-1,67,66,68,-1,69,70,33,-1,33,70,71,-1,68,72,67,-1,67,72,73,-1,67,73,33,-1,33,73,74,-1,33,74,69,-1,71,75,33,-1,33,75,76,-1,33,76,77,-1,78,79,80,-1,80,81,78,-1,78,81,82,-1,78,82,83,-1,83,82,84,-1,83,84,85,-1,85,84,86,-1,85,86,67,-1,67,86,87,-1,67,87,65,-1,88,89,90,-1,90,89,91,-1,90,91,26,-1,61,53,59,-1,59,53,11,-1,59,11,92,-1,92,11,32,-1,92,32,25,-1,25,32,33,-1,25,33,26,-1,26,33,77,-1,26,77,90,-1,93,94,5,-1,5,94,95,-1,96,97,98,-1,98,97,99,-1,100,101,102,-1,102,103,100,-1,100,103,104,-1,100,104,105,-1,106,5,107,-1,107,5,98,-1,107,98,108,-1,108,98,99,-1,108,99,109,-1,109,99,0,-1,105,93,100,-1,100,93,5,-1,100,5,110,-1,110,5,106,-1,110,106,111,-1,111,106,112,-1,3,5,2,-1,2,5,95,-1,2,95,0,-1,0,95,113,-1,0,113,114,-1,109,115,116,-1,114,117,0,-1,0,117,118,-1,0,118,109,-1,109,118,119,-1,109,119,115,-1,116,120,109,-1,109,120,121,-1,109,121,100,-1,100,121,122,-1,100,122,101,-1,123,124,125,-1,125,124,126,-1,127,128,98,-1,98,128,129,-1,98,129,130,-1,7,131,6,-1,6,131,88,-1,6,88,5,-1,5,88,90,-1,5,90,98,-1,98,90,132,-1,98,132,127,-1,130,133,98,-1,98,133,134,-1,98,134,124,-1,124,134,135,-1,124,135,126,-1,123,136,124,-1,124,136,137,-1,124,137,138,-1,138,137,139,-1,138,139,140,-1,140,139,141,-1,140,141,142,-1,142,143,144,-1,144,145,142,-1,142,145,146,-1,142,146,140,-1,
        ]
    }
}
Shape{
    appearance Appearance {
        material  Material 	{
            diffuseColor 1.0 1.0 1.0
            specularColor 0.8784313725490196 0.8784313725490196 0.8784313725490196
            ambientIntensity 1.0
            transparency 0.0
            shininess 0.5
        }
    }
    geometry IndexedFaceSet {
        ccw TRUE
        solid FALSE
        coord DEF co Coordinate {
            point [
                -0.1121 0.757 0.0, -0.0962 0.757 0.0, -0.1121 0.6518 0.0, -0.0962 0.6389 0.0, -0.1567 0.6518 0.0, -0.1567 0.6389 0.0, -0.2547 0.645 0.0, -0.2547 0.6579 0.0, -0.2525 0.6568 0.0, -0.2421 0.6398 0.0, -0.24 0.6521 0.0, -0.2301 0.6381 0.0, -0.2243 0.6504 0.0, -0.2254 0.6375 0.0, -0.2222 0.6374 0.0, -0.2133 0.6516 0.0, -0.2152 0.6381 0.0, -0.2547 0.7379 0.0, -0.2547 0.7537 0.0, -0.2413 0.7436 0.0, -0.241 0.7574 0.0, -0.227 0.7454 0.0, -0.2269 0.7584 0.0, -0.2154 0.7441 0.0, -0.215 0.7574 0.0, -0.2065 0.7409 0.0, -0.2018 0.7536 0.0, -0.1983 0.7355 0.0, -0.1906 0.7472 0.0, -0.1912 0.7276 0.0, -0.1799 0.7369 0.0, -0.1863 0.7185 0.0, -0.173 0.7259 0.0, -0.1832 0.7058 0.0, -0.1685 0.7125 0.0, -0.1826 0.6966 0.0, -0.1668 0.6957 0.0, -0.1838 0.6839 0.0, -0.1679 0.682 0.0, -0.187 0.6737 0.0, -0.1715 0.6695 0.0, -0.1919 0.6655 0.0, -0.1778 0.6583 0.0, -0.1975 0.6597 0.0, -0.1866 0.6489 0.0, -0.2047 0.6548 0.0, -0.1961 0.6429 0.0, -0.2076 0.6389 0.0
            ]
        }
        coordIndex [
            0,1,2,-1,2,1,3,-1,2,3,4,-1,4,3,5,-1,6,7,8,-1,6,8,9,-1,9,8,10,-1,9,10,11,-1,11,10,12,-1,11,12,13,-1,13,12,14,-1,14,12,15,-1,14,15,16,-1,17,18,19,-1,19,18,20,-1,19,20,21,-1,21,20,22,-1,21,22,23,-1,23,22,24,-1,23,24,25,-1,25,24,26,-1,25,26,27,-1,27,26,28,-1,27,28,29,-1,29,28,30,-1,29,30,31,-1,31,30,32,-1,31,32,33,-1,33,32,34,-1,33,34,35,-1,35,34,36,-1,35,36,37,-1,37,36,38,-1,37,38,39,-1,39,38,40,-1,39,40,41,-1,41,40,42,-1,41,42,43,-1,43,42,44,-1,43,44,45,-1,45,44,46,-1,45,46,15,-1,15,46,47,-1,15,47,16,-1,
        ]
    }
}
Shape{
    appearance Appearance {
        material  Material 	{
            diffuseColor 0.07058823529411765 0.07058823529411765 0.07058823529411765
            specularColor 0.00392156862745098 0.00392156862745098 0.00392156862745098
            ambientIntensity 0.102
            transparency 0.0
            shininess 0.5
        }
    }
    geometry IndexedFaceSet {
        ccw TRUE
        solid FALSE
        coord DEF co Coordinate {
            point [
                -0.38 0.744 0.0, -0.38 0.6518 0.0, -0.3974 0.744 0.0, -0.3967 0.6518 0.0, -0.4092 0.653 0.0, -0.4433 0.6991 0.0, -0.4423 0.7108 0.0, -0.4396 0.7202 0.0, -0.4114 0.7425 0.0, -0.4191 0.6561 0.0, -0.4272 0.6609 0.0, -0.4338 0.6674 0.0, -0.4388 0.6755 0.0, -0.4423 0.6867 0.0, -0.4355 0.7274 0.0, -0.4297 0.7335 0.0, -0.4211 0.7391 0.0
            ]
        }
        coordIndex [
            0,1,2,-1,2,1,3,-1,2,3,4,-1,5,6,2,-1,2,6,7,-1,2,7,8,-1,4,9,2,-1,2,9,10,-1,2,10,11,-1,11,12,2,-1,2,12,13,-1,2,13,5,-1,14,15,7,-1,7,15,16,-1,7,16,8,-1,
        ]
    }
}
Shape{
    appearance Appearance {
        material  Material 	{
            diffuseColor 1.0 1.0 1.0
            specularColor 0.8784313725490196 0.8784313725490196 0.8784313725490196
            ambientIntensity 1.0
            transparency 0.0
            shininess 0.5
        }
    }
    geometry IndexedFaceSet {
        ccw TRUE
        solid FALSE
        coord DEF co Coordinate {
            point [
                -0.2777 0.6389 0.0, -0.3411 0.6389 0.0, -0.3411 0.6518 0.0, -0.2935 0.6518 0.0, -0.2935 0.6921 0.0, -0.2777 0.757 0.0, -0.3382 0.744 0.0, -0.3382 0.757 0.0, -0.2935 0.744 0.0, -0.2935 0.7051 0.0, -0.3353 0.7051 0.0, -0.3353 0.6921 0.0, -0.5004 0.6849 0.0, -0.5399 0.6849 0.0, -0.518 0.7343 0.0, -0.5221 0.7343 0.0, -0.5191 0.7384 0.0, -0.521 0.7384 0.0, -0.5199 0.7426 0.0, -0.5203 0.7426 0.0, -0.4552 0.7221 0.0, -0.4497 0.7323 0.0, -0.4355 0.7274 0.0, -0.4413 0.7416 0.0, -0.4297 0.7335 0.0, -0.4412 0.7417 0.0, -0.4211 0.7391 0.0, -0.4283 0.7503 0.0, -0.4114 0.7425 0.0, -0.4145 0.7551 0.0, -0.3974 0.744 0.0, -0.3974 0.757 0.0, -0.38 0.744 0.0, -0.3641 0.757 0.0, -0.38 0.6518 0.0, -0.3641 0.6389 0.0, -0.3967 0.6518 0.0, -0.3962 0.6389 0.0, -0.4092 0.653 0.0, -0.4108 0.6401 0.0, -0.4191 0.6561 0.0, -0.4245 0.6442 0.0, -0.4272 0.6609 0.0, -0.4368 0.6514 0.0, -0.4338 0.6674 0.0, -0.4465 0.6607 0.0, -0.4388 0.6755 0.0, -0.4533 0.6712 0.0, -0.4423 0.6867 0.0, -0.4575 0.6836 0.0, -0.4433 0.6991 0.0, -0.4592 0.6994 0.0, -0.4423 0.7108 0.0, -0.4583 0.7105 0.0, -0.4396 0.7202 0.0, -0.4964 0.672 0.0, -0.5452 0.672 0.0, -0.5125 0.757 0.0, -0.4678 0.6389 0.0, -0.4851 0.6389 0.0, -0.5283 0.757 0.0, -0.5744 0.6389 0.0, -0.5571 0.6389 0.0, -0.5213 0.9055 0.0, -0.9543 0.9055 0.0, -0.5213 1.1614 0.0, -0.9543 1.1614 0.0, -0.6 1.2598 0.0, -0.5213 1.1811 0.0, -0.8756 1.2598 0.0, -0.9543 1.1811 0.0, 0.2917 -0.9902 0.0, 0.1047 -1.0296 0.0, 0.2917 0.4271 0.0, 0.0945 -1.031 0.0, 0.085 -1.0349 0.0, 0.2523 0.4664 0.0, -0.7221 -1.0349 0.0, -0.3526 0.4664 0.0, -0.7316 -1.031 0.0, -0.8894 0.4664 0.0, -0.7417 -1.0296 0.0, 0.0769 -1.0411 0.0, 0.0706 -1.0493 0.0, -0.7077 -1.0493 0.0, 0.0667 -1.0588 0.0, -0.7037 -1.0588 0.0, 0.0653 -1.069 0.0, 0.2625 0.4651 0.0, 0.272 0.4612 0.0, 0.2802 0.4549 0.0, 0.2864 0.4468 0.0, 0.2904 0.4373 0.0, -0.7139 -1.0411 0.0, -0.9172 0.4549 0.0, -0.9288 0.4271 0.0, -0.9235 0.4468 0.0, -0.9274 0.4373 0.0, -0.8894 -1.0296 0.0, -0.9288 -0.9902 0.0, -0.9091 0.4612 0.0, -0.8996 0.4651 0.0, 0.2904 -1.0004 0.0, 0.2625 -1.0283 0.0, 0.2523 -1.0296 0.0, 0.2864 -1.0099 0.0, 0.2802 -1.0181 0.0, 0.272 -1.0243 0.0, 0.0653 -1.1614 0.0, 0.0653 -1.2251 0.0, -0.1315 -1.2598 0.0, -0.7024 -1.1614 0.0, -0.7024 -1.069 0.0, -0.9091 -1.0243 0.0, -0.9172 -1.0181 0.0, -0.9235 -1.0099 0.0, -0.8996 -1.0283 0.0, -0.9274 -1.0004 0.0, -0.5055 -1.2598 0.0, -0.7024 -1.2251 0.0
            ]
        }
        coordIndex [
            0,1,2,-1,2,3,0,-1,0,3,4,-1,0,4,5,-1,6,7,8,-1,8,7,5,-1,8,5,9,-1,9,5,4,-1,9,4,10,-1,10,4,11,-1,12,13,14,-1,14,13,15,-1,14,15,16,-1,16,15,17,-1,16,17,18,-1,18,17,19,-1,20,21,22,-1,22,21,23,-1,22,23,24,-1,24,23,25,-1,24,25,26,-1,26,25,27,-1,26,27,28,-1,28,27,29,-1,28,29,30,-1,30,29,31,-1,30,31,32,-1,32,31,33,-1,32,33,34,-1,34,33,35,-1,34,35,36,-1,36,35,37,-1,36,37,38,-1,38,37,39,-1,38,39,40,-1,40,39,41,-1,40,41,42,-1,42,41,43,-1,42,43,44,-1,44,43,45,-1,44,45,46,-1,46,45,47,-1,46,47,48,-1,48,47,49,-1,48,49,50,-1,50,49,51,-1,50,51,52,-1,52,51,53,-1,52,53,54,-1,54,53,20,-1,54,20,22,-1,12,55,13,-1,13,55,56,-1,14,57,12,-1,12,57,58,-1,12,58,55,-1,55,58,59,-1,14,16,57,-1,57,16,18,-1,57,18,60,-1,60,18,19,-1,60,19,17,-1,17,15,60,-1,60,15,13,-1,60,13,61,-1,61,13,56,-1,61,56,62,-1,63,64,65,-1,65,64,66,-1,67,68,69,-1,69,68,65,-1,69,65,70,-1,70,65,66,-1,71,72,73,-1,73,72,74,-1,73,74,75,-1,76,77,78,-1,78,77,79,-1,78,79,80,-1,80,79,81,-1,82,83,84,-1,84,83,85,-1,84,85,86,-1,86,85,87,-1,76,88,77,-1,77,88,89,-1,77,89,90,-1,90,91,77,-1,77,91,92,-1,77,92,93,-1,93,92,73,-1,93,73,84,-1,84,73,75,-1,84,75,82,-1,94,95,96,-1,96,95,97,-1,81,98,80,-1,80,98,99,-1,80,99,95,-1,94,100,95,-1,95,100,101,-1,95,101,80,-1,102,103,71,-1,71,103,104,-1,71,104,72,-1,102,105,103,-1,103,105,106,-1,103,106,107,-1,108,109,110,-1,108,111,87,-1,87,111,112,-1,87,112,86,-1,113,114,115,-1,98,116,99,-1,99,116,113,-1,99,113,117,-1,117,113,115,-1,108,110,111,-1,111,110,118,-1,111,118,119,-1,
        ]
    }
}
Shape{
    appearance Appearance {
        material  Material 	{
            diffuseColor 0.07058823529411765 0.07058823529411765 0.07058823529411765
            specularColor 0.00392156862745098 0.00392156862745098 0.00392156862745098
            ambientIntensity 0.102
            transparency 0.0
            shininess 0.5
        }
    }
    geometry IndexedFaceSet {
        ccw TRUE
        solid FALSE
        coord DEF co Coordinate {
            point [
                0.4689 -1.0827 0.3228, 0.4689 1.0827 0.3228, -1.1059 -1.0827 0.3228, -1.1059 1.0827 0.3228
            ]
        }
        coordIndex [
            0,1,2,-1,2,1,3,-1,
        ]
    }
}
Shape{
    appearance Appearance {
        material  Material 	{
            diffuseColor 1.0 1.0 1.0
            specularColor 0.8784313725490196 0.8784313725490196 0.8784313725490196
            ambientIntensity 1.0
            transparency 0.0
            shininess 0.5
        }
    }
    geometry IndexedFaceSet {
        ccw TRUE
        solid FALSE
        coord DEF co Coordinate {
            point [
                -0.037 1.2598 0.0, 0.2386 1.2598 0.0, 0.3173 1.1811 0.0, 0.3173 0.9055 0.0, -0.1158 0.9055 0.0, 0.3173 1.1614 0.0, -0.1158 1.1614 0.0, -0.1158 1.1811 0.0
            ]
        }
        coordIndex [
            0,1,2,-1,3,4,5,-1,5,4,6,-1,5,6,2,-1,2,6,7,-1,2,7,0,-1,
        ]
    }
}
Shape{
    appearance Appearance {
        material  Material 	{
            diffuseColor 0.07058823529411765 0.07058823529411765 0.07058823529411765
            specularColor 0.00392156862745098 0.00392156862745098 0.00392156862745098
            ambientIntensity 0.102
            transparency 0.0
            shininess 0.5
        }
    }
    geometry IndexedFaceSet {
        ccw TRUE
        solid FALSE
        coord DEF co Coordinate {
            point [
                0.0653 -1.1614 0.0, 0.5476 -1.1614 0.0, 0.0653 -1.1384 0.0945, 0.4689 -1.0827 0.3228, -0.7024 -1.1384 0.0945, -1.1059 -1.0827 0.3228, -0.7024 -1.1614 0.0, -1.1847 -1.1614 0.0, -1.1847 0.6381 0.0, -1.1059 1.0827 0.3228, -1.1847 1.1614 0.0, 0.4689 1.0827 0.3228, 0.5476 0.6381 0.0, 0.5476 1.1614 0.0, 0.3173 1.1614 0.0, -0.3526 1.1614 0.0, -0.5213 1.1614 0.0, -0.5213 1.1384 0.0945, 0.3173 1.1384 0.0945, -0.1158 1.1384 0.0945, -0.1158 1.1614 0.0, -0.9543 1.1614 0.0, -0.9543 1.1384 0.0945
            ]
        }
        coordIndex [
            0,1,2,-1,2,1,3,-1,2,3,4,-1,4,3,5,-1,4,5,6,-1,6,5,7,-1,7,5,8,-1,8,5,9,-1,8,9,10,-1,3,1,11,-1,11,1,12,-1,11,12,13,-1,11,13,14,-1,15,16,17,-1,14,18,11,-1,11,18,19,-1,11,19,9,-1,15,17,20,-1,21,10,22,-1,22,10,9,-1,22,9,17,-1,17,9,19,-1,17,19,20,-1,
        ]
    }
}
Shape{
    appearance Appearance {
        material  Material 	{
            diffuseColor 0.7686274509803922 0.7686274509803922 0.7686274509803922
            specularColor 0.615686274509804 0.615686274509804 0.615686274509804
            ambientIntensity 0.7686
            transparency 0.0
            shininess 0.5
        }
    }
    geometry IndexedFaceSet {
        ccw TRUE
        solid FALSE
        coord DEF co Coordinate {
            point [
                -0.1158 1.1811 0.0945, -0.1158 1.1811 0.0, -0.1158 1.1384 0.0945, -0.1158 1.1614 0.0, 0.3173 1.1811 0.0, 0.3173 1.1811 0.0945, 0.3173 1.1614 0.0, 0.3173 1.1384 0.0945, 0.2386 1.2598 0.0945, -0.037 1.2598 0.0945, 0.2386 1.2598 0.0, -0.037 1.2598 0.0, 0.0653 -1.2251 0.0945, 0.0653 -1.2251 0.0, 0.0653 -1.1384 0.0945, 0.0653 -1.1614 0.0, -0.7024 -1.2251 0.0, -0.7024 -1.2251 0.0945, -0.7024 -1.1614 0.0, -0.7024 -1.1384 0.0945, -0.5055 -1.2598 0.0945, -0.1315 -1.2598 0.0945, -0.5055 -1.2598 0.0, -0.1315 -1.2598 0.0, -0.9543 1.1811 0.0945, -0.9543 1.1811 0.0, -0.9543 1.1384 0.0945, -0.9543 1.1614 0.0, -0.5213 1.1811 0.0, -0.5213 1.1811 0.0945, -0.5213 1.1614 0.0, -0.5213 1.1384 0.0945, -0.8756 1.2598 0.0945, -0.6 1.2598 0.0945, -0.6 1.2598 0.0, -0.8756 1.2598 0.0
            ]
        }
        coordIndex [
            0,1,2,-1,2,1,3,-1,4,5,6,-1,6,5,7,-1,0,2,7,-1,5,8,7,-1,7,8,9,-1,7,9,0,-1,8,5,10,-1,10,5,4,-1,9,8,11,-1,11,8,10,-1,0,9,1,-1,1,9,11,-1,12,13,14,-1,14,13,15,-1,16,17,18,-1,18,17,19,-1,19,17,20,-1,19,20,14,-1,14,20,21,-1,14,21,12,-1,20,17,22,-1,22,17,16,-1,21,20,23,-1,23,20,22,-1,12,21,13,-1,13,21,23,-1,24,25,26,-1,26,25,27,-1,28,29,30,-1,30,29,31,-1,24,26,32,-1,32,26,31,-1,32,31,33,-1,33,31,29,-1,33,29,34,-1,34,29,28,-1,32,33,35,-1,35,33,34,-1,24,32,25,-1,25,32,35,-1,
        ]
    }
}